Coordinates
version=1
nRows=10
nColumns=34
inDegrees=yes

Units are S.I. units (second, meters, Newtons, ...)
If the header above contains a line with 'inDegrees', this indicates whether rotational values are in degrees (yes) or radians (no).

endheader
time	pelvis_tilt	pelvis_list	pelvis_rotation	pelvis_tx	pelvis_ty	pelvis_tz	hip_flexion_r	hip_adduction_r	hip_rotation_r	knee_angle_r	ankle_angle_r	subtalar_angle_r	mtp_angle_r	hip_flexion_l	hip_adduction_l	hip_rotation_l	knee_angle_l	ankle_angle_l	subtalar_angle_l	mtp_angle_l	lumbar_extension	lumbar_bending	lumbar_rotation	arm_flex_r	arm_add_r	arm_rot_r	elbow_flex_r	pro_sup_r	arm_flex_l	arm_add_l	arm_rot_l	elbow_flex_l	pro_sup_l
      4.86666670	     -7.19574844	      0.22865315	      3.85303606	      0.31574599	      1.58376433	     -0.15163186	      7.98397033	     -2.05524625	      1.36192450	      6.18889937	     -0.24076606	    -15.29978762	      0.00000000	      7.43277745	      4.53316060	    -11.19110353	      4.76381116	     -3.55655565	    -15.03827293	      0.00000000	     -3.36701670	     -3.29952097	     -0.51001380	     -6.10533853	     -5.39253156	    -12.03112563	     40.13519665	     90.32717829	     -4.53943765	     -7.22709517	      0.43363690	     27.70128242	     85.12171569
      4.88333330	     -7.03405881	      0.23897853	      4.21929912	      0.31391045	      1.58790380	     -0.16011543	      8.10893579	     -2.23391050	      0.97633326	      6.90254958	     -0.25454169	    -15.49973470	      0.00000000	      7.48523144	      4.59953105	    -11.27611198	      5.19566424	     -3.64284006	    -15.09639905	      0.00000000	     -3.51372118	     -3.45266154	     -0.55634044	     -6.32936815	     -5.28526992	    -11.99220887	     39.94470045	     90.39744037	     -4.38037226	     -7.33547190	      0.35736860	     27.69650933	     85.18446222
      4.90000000	     -6.80219139	      0.25186963	      4.62655513	      0.31484262	      1.58404784	     -0.16081970	      8.13441113	     -2.38873464	      0.76509587	      7.59436121	      0.06105665	    -15.87437207	      0.00000000	      7.49424880	      4.67547752	    -11.06312728	      5.71349643	     -3.58332973	    -15.30700213	      0.00000000	     -3.60148866	     -3.62992228	     -0.91207802	     -6.55397940	     -5.04624575	    -11.92920294	     39.59585240	     90.51489988	     -3.92887493	     -7.56935543	      0.29960459	     27.84254385	     85.30844597
      4.91666670	     -6.55388410	      0.25626025	      5.18044531	      0.31304953	      1.58854420	     -0.16132008	      7.91233474	     -2.51247797	      0.58385775	      7.89428773	     -0.03896814	    -16.36621230	      0.00000000	      7.45236609	      4.78998669	    -10.34083132	      6.05729541	     -4.04287621	    -16.19632872	      0.00000000	     -3.67717688	     -3.77092601	     -2.11973258	     -6.16649533	     -4.69205090	    -11.67473559	     38.09839795	     91.06686107	     -3.67142192	     -7.99079233	      0.58299970	     27.54719056	     85.97484484
      4.93333330	     -6.47561716	      0.34789287	      5.67943725	      0.31393740	      1.58851876	     -0.16210422	      8.00135001	     -2.71402771	      0.39191440	      8.41703806	      0.17709470	    -16.69185039	      0.00000000	      7.54812730	      4.99060325	    -10.01381616	      6.38121542	     -4.08228479	    -16.25301459	      0.00000000	     -3.84032711	     -4.08286591	     -2.70712737	     -6.36025749	     -4.44875528	    -11.42784285	     37.64823859	     91.27639555	     -3.18313589	     -8.36530301	      0.72354425	     27.66024144	     86.21893092
      4.95000000	     -6.04266863	      0.34796381	      6.39519042	      0.33370461	      1.58918753	     -0.17167858	      7.12819872	     -2.90302539	     -0.26969755	      8.60167171	      0.10059249	    -17.00151423	      0.00000000	      6.90665528	      5.10169700	     -9.60662898	      6.55334274	     -4.33649921	    -16.18591385	      0.00000000	     -3.60837353	     -4.16336857	     -4.15233876	     -6.48381787	     -4.55575212	     -9.89940556	     36.18413031	     93.95793906	     -3.80714833	     -8.75920471	      1.55561758	     27.41153683	     89.30228968
      4.96666670	     -5.85162381	      0.41677914	      6.68285083	      0.32372425	      1.58902777	     -0.16760617	      6.88907501	     -3.04464859	     -0.55442393	      8.98890545	      0.43817538	    -17.40719461	      0.00000000	      6.65268171	      5.26792057	     -9.29159070	      6.63350944	     -4.05303939	    -16.26942304	      0.00000000	     -3.60871035	     -4.38181877	     -4.78389420	     -6.61134461	     -4.32401988	    -10.02225456	     35.77128040	     94.02297923	     -3.55023230	     -8.96887698	      1.51468060	     27.28678499	     89.41799254
      4.98333330	     -5.27519656	      0.40142709	      7.35936054	      0.33281797	      1.59002847	     -0.17240037	      5.96009484	     -3.13368951	     -1.32512675	      9.08649296	      0.07083481	    -17.97399296	      0.00000000	      5.79664747	      5.31032104	     -8.77870250	      6.57668047	     -4.18761169	    -16.25172792	      0.00000000	     -3.71574479	     -4.49856877	     -6.03365557	     -6.36780443	     -3.88853558	    -10.23833710	     33.97842598	     94.19202695	     -3.70204774	     -9.29999792	      1.57743763	     27.12413903	     89.74178590
      5.00000000	     -5.11210629	      0.34700590	      7.66781198	      0.33370273	      1.58986771	     -0.17282981	      5.65229524	     -3.15948211	     -1.65306002	      9.36463362	      0.31246232	    -18.30242664	      0.00000000	      5.38509723	      5.29526777	     -8.84887196	      6.48109176	     -4.05496468	    -16.35709240	      0.00000000	     -3.33866390	     -4.63298064	     -6.44643710	     -7.02689728	     -3.68408319	    -10.21596710	     33.59999786	     94.22261543	     -3.67141746	     -9.53568430	      1.54564838	     27.25260385	     89.78388398
      5.01666670	     -4.65415116	      0.33394111	      8.45078812	      0.34350277	      1.58966781	     -0.17767260	      4.76700088	     -3.24460218	     -2.56236653	      9.39437020	      0.30324095	    -18.72672057	      0.00000000	      4.51218197	      5.32653087	     -8.28474741	      6.28711892	     -3.83248956	    -16.24659637	      0.00000000	     -2.94315817	     -4.80497634	     -7.89105131	     -6.80719986	     -3.33251238	    -10.42970219	     31.72503735	     94.43039806	     -4.56345655	     -9.88359996	      1.33344532	     27.60748713	     90.13019247
